<?xml version="1.0" encoding="UTF-8"?>
<svg version="1.1" xmlns="http://www.w3.org/2000/svg" width="408" height="394">
<path d="M0 0 C134.64 0 269.28 0 408 0 C408 130.02 408 260.04 408 394 C273.36 394 138.72 394 0 394 C0 263.98 0 133.96 0 0 Z " fill="#000000" transform="translate(0,0)"/>
<path d="M0 0 C8.77194546 -0.0466247 17.54384735 -0.0820207 26.31589031 -0.10362434 C30.39040739 -0.11400021 34.46483883 -0.12804411 38.53930664 -0.15087891 C42.48155861 -0.17283096 46.42372893 -0.18461503 50.36603737 -0.18975449 C51.85970149 -0.19341057 53.35336185 -0.20054809 54.84699059 -0.21146011 C72.67140901 -0.33633676 89.15834372 0.83547692 103 13 C111.74946266 22.15453037 115.20791818 31.79535042 115.0625 44.3125 C115.05798828 45.05306641 115.05347656 45.79363281 115.04882812 46.55664062 C115.03712175 48.37112899 115.01918898 50.18557534 115 52 C116.19882813 51.72414062 117.39765625 51.44828125 118.6328125 51.1640625 C145.69441338 45.17268113 173.7602041 39.07316791 198.625 54.8125 C208.17840769 61.49157807 214.18176801 69.92174943 218 81 C218 82.32 218 83.64 218 85 C211.73 85 205.46 85 199 85 C198.195625 82.5559375 198.195625 82.5559375 197.375 80.0625 C193.34504398 69.13808961 187.98155246 62.75602469 177.41015625 57.78125 C165.4046333 52.72629297 153.52841225 53.18110724 141 56 C136.71 56.66 132.42 57.32 128 58 C127.67 66.91 127.34 75.82 127 85 C121.39 85 115.78 85 110 85 C109.67 80.71 109.34 76.42 109 72 C108.44570312 72.77085937 107.89140625 73.54171875 107.3203125 74.3359375 C106.59585938 75.33882813 105.87140625 76.34171875 105.125 77.375 C104.40570313 78.37273437 103.68640625 79.37046875 102.9453125 80.3984375 C101 83 101 83 99 85 C96.20263672 85.22705078 96.20263672 85.22705078 92.6796875 85.1953125 C90.79443359 85.18564453 90.79443359 85.18564453 88.87109375 85.17578125 C87.55238281 85.15902344 86.23367187 85.14226562 84.875 85.125 C83.53516279 85.11496983 82.19531848 85.10584404 80.85546875 85.09765625 C77.57013427 85.07402075 74.28515535 85.04107234 71 85 C73.58968864 83.27354091 75.92652178 82.12890493 78.75 80.875 C86.54375297 77.00656787 91.22646703 71.16651374 94 63 C94.69140522 60.22111387 94.69140522 60.22111387 95 58 C93.02 57.505 93.02 57.505 91 57 C91 56.34 91 55.68 91 55 C92.65 54.67 94.3 54.34 96 54 C96.62159334 39.933573 94.98554476 27.03879407 85.37109375 16.15625 C72.45194568 3.92652282 49.97250292 8.41590286 35 8 C35 33.41 35 58.82 35 85 C29.72 85 24.44 85 19 85 C18.9906543 82.95167969 18.98130859 80.90335937 18.97167969 78.79296875 C18.93781855 72.00348129 18.88221924 65.21429486 18.81609726 58.42504883 C18.77669214 54.31118237 18.74446981 50.19752772 18.72900391 46.08349609 C18.71379099 42.10857526 18.67926457 38.134237 18.63169098 34.15957642 C18.61692466 32.64788901 18.60896172 31.13611841 18.60811615 29.62435913 C18.69420308 16.74742346 18.69420308 16.74742346 12.078125 6.07421875 C9.63499021 4.81132013 7.4584558 4.27578849 4.75 3.8125 C3.85796875 3.65394531 2.9659375 3.49539062 2.046875 3.33203125 C1.37140625 3.22246094 0.6959375 3.11289063 0 3 C0 2.01 0 1.02 0 0 Z " fill="#F9F9F9" transform="translate(95,76)"/>
<path d="M0 0 C18.17187181 -1.63010167 18.17187181 -1.63010167 24.375 1.9453125 C26.87051017 4.49541196 28.94263922 7.08817083 31 10 C32.27682694 11.47134355 33.56727274 12.93105115 34.875 14.375 C35.38804687 14.98085937 35.90109375 15.58671875 36.4296875 16.2109375 C38.19622357 18.2235582 40.10641982 20.10641982 42 22 C42.33 14.74 42.66 7.48 43 0 C48.61 0 54.22 0 60 0 C59.97268799 1.23975586 59.94537598 2.47951172 59.91723633 3.75683594 C59.82961892 8.40913522 59.81583489 13.05936421 59.82299805 17.71240234 C59.81607303 19.71614891 59.78980076 21.7199345 59.74291992 23.72314453 C59.14662932 37.05798221 59.14662932 37.05798221 64.82597351 48.61553955 C67.08764764 50.91174358 69.49993421 52.96886307 72 55 C73.32842061 56.31747209 74.64532139 57.64696324 75.9375 59 C77.75211898 60.79280865 79.58667972 62.55659358 81.4375 64.3125 C83 66 83 66 83 68 C83.84884766 68.35384766 83.84884766 68.35384766 84.71484375 68.71484375 C87.52302052 70.29414316 89.34382481 72.22686006 91.5625 74.5625 C104.2023559 87.40562844 117.82418036 96.60651486 135 102 C135.99 102.33 136.98 102.66 138 103 C140.56634861 103.22718496 143.11678107 103.41608184 145.6875 103.5625 C146.38939453 103.60568359 147.09128906 103.64886719 147.81445312 103.69335938 C149.54275206 103.7991736 151.2713511 103.90006581 153 104 C153 104.66 153 105.32 153 106 C136.12137138 112.02981137 116.37691342 108.61700012 100.53125 101.42578125 C92.84312146 97.57273552 86.41868963 92.68211869 80 87 C79.14535156 86.25492187 78.29070312 85.50984375 77.41015625 84.7421875 C71.71817287 79.7079834 66.35202633 74.39128325 61 69 C60.92558011 73.18087152 60.87127182 77.3613873 60.83520508 81.54272461 C60.8201624 82.96369141 60.79972296 84.38461213 60.77368164 85.80541992 C60.73709653 87.85346886 60.72022903 89.9009015 60.70703125 91.94921875 C60.68346558 93.79519653 60.68346558 93.79519653 60.65942383 95.6784668 C61.13679133 100.33408322 62.90856865 102.84242129 66.0625 106.1875 C70.1546017 108.71241381 74.28963957 109.30487885 79 110 C78.505 111.485 78.505 111.485 78 113 C60.51 113 43.02 113 25 113 C24.67 112.01 24.34 111.02 24 110 C24.96099609 109.88785156 24.96099609 109.88785156 25.94140625 109.7734375 C32.36539568 108.79691452 36.77105506 107.08249346 41 102 C41.96989738 99.09030785 42.17129012 97.06582648 42.25634766 94.02880859 C42.28532135 93.01700531 42.31429504 92.00520203 42.34414673 90.96273804 C42.44196434 86.32577344 42.5157024 81.68894909 42.56982422 77.05126953 C42.60645192 74.61082747 42.66098882 72.17058507 42.73388672 69.73095703 C42.83767227 66.20272641 42.88181838 62.67796252 42.9140625 59.1484375 C42.95737701 58.06686371 43.00069153 56.98528992 43.0453186 55.87094116 C43.02991612 49.64011793 42.16186405 46.48796255 37.69287109 42.01416016 C36.13567731 40.66785457 34.57152496 39.32954898 33 38 C31.64423312 36.56249867 30.30682398 35.10713527 29 33.625 C28.443125 32.99851563 27.88625 32.37203125 27.3125 31.7265625 C26 30 26 30 25 27 C24.34 27 23.68 27 23 27 C21.58984375 25.6015625 21.58984375 25.6015625 19.9375 23.625 C16.31195476 19.34165541 12.53800452 15.21627867 8.72265625 11.1015625 C7 9 7 9 7 7 C6.34 7 5.68 7 5 7 C3.7109375 5.46875 3.7109375 5.46875 2.375 3.5 C1.70597656 2.52546875 1.70597656 2.52546875 1.0234375 1.53125 C0.68570313 1.0259375 0.34796875 0.520625 0 0 Z " fill="#F7F7F7" transform="translate(162,187)"/>
<path d="M0 0 C5.28 0 10.56 0 16 0 C16.01401855 2.22484131 16.01401855 2.22484131 16.02832031 4.49462891 C16.0682495 10.00762758 16.1340176 15.52006996 16.20751953 21.03271484 C16.23571195 23.41675663 16.25693503 25.80089158 16.27099609 28.18505859 C16.29244869 31.61604452 16.33911364 35.04591224 16.390625 38.4765625 C16.39185364 39.53928375 16.39308228 40.602005 16.39434814 41.69692993 C16.54580523 49.38233296 17.89915004 52.72195861 23.1875 58.3125 C27.02631426 60.61578856 30.58969737 60.80782995 35 61 C35 61.99 35 62.98 35 64 C17.18 64 -0.64 64 -19 64 C-19 63.01 -19 62.02 -19 61 C-18.41992188 60.90203125 -17.83984375 60.8040625 -17.2421875 60.703125 C-12.03972102 59.70727333 -8.07323154 58.58832302 -4 55 C-0.66873883 48.9877837 -0.5310254 43.59810737 -0.48828125 36.81640625 C-0.47033005 35.76090073 -0.45237885 34.7053952 -0.43388367 33.61790466 C-0.37995641 30.26614302 -0.34594083 26.91452238 -0.3125 23.5625 C-0.27931147 21.2818815 -0.2448204 19.00128156 -0.20898438 16.72070312 C-0.12423975 11.14723741 -0.0573444 5.57381225 0 0 Z " fill="#F7F7F7" transform="translate(114,187)"/>
<path d="M0 0 C6.27 0 12.54 0 19 0 C16.97653096 13.75958948 10.74322302 25.30818044 -0.4140625 33.84765625 C-12.13013116 41.41660854 -25.40382764 42.55168223 -38.9609375 40.56640625 C-46.44934091 38.66477699 -54.30448395 34.23491662 -58.5625 27.625 C-60.24826261 23.37394646 -60.7940734 19.54068157 -61 15 C-60.34 15 -59.68 15 -59 15 C-58.76925781 15.53109375 -58.53851563 16.0621875 -58.30078125 16.609375 C-56.1741922 21.21558369 -54.38686269 24.20836011 -50 27 C-49.49339844 27.37125 -48.98679688 27.7425 -48.46484375 28.125 C-41.18242039 32.73453391 -31.17190745 32.14705034 -23.0234375 30.33984375 C-13.0993193 26.79112656 -7.71413154 20.47374228 -3.2265625 11.16015625 C-1.82539226 7.55013485 -0.93919655 3.75678618 0 0 Z " fill="#F6F6F6" transform="translate(294,187)"/>
<path d="M0 0 C7.33834586 -0.36090226 7.33834586 -0.36090226 10.0625 1.125 C11.49771013 3.99542026 10.83487829 5.98159388 10 9 C8 11 8 11 6.0546875 11.1953125 C4.03645833 11.13020833 2.01822917 11.06510417 0 11 C0 7.37 0 3.74 0 0 Z " fill="#D1D1D1" transform="translate(303,169)"/>
<path d="M0 0 C6.625 -0.25 6.625 -0.25 10 2 C10.39570119 5.0996593 10.49754211 7.12198451 8.9375 9.875 C5.99772876 11.58196395 3.32129197 11.18799766 0 11 C0 7.37 0 3.74 0 0 Z " fill="#D9D9D9" transform="translate(115,169)"/>
<path d="M0 0 C2.31 0 4.62 0 7 0 C7.625 2.375 7.625 2.375 8 5 C7.34 5.66 6.68 6.32 6 7 C6.33 7.99 6.66 8.98 7 10 C7.99 10.33 8.98 10.66 10 11 C7.625 10.6875 7.625 10.6875 5 10 C4.34 9.01 3.68 8.02 3 7 C2.67 8.32 2.34 9.64 2 11 C1.34 11 0.68 11 0 11 C0 7.37 0 3.74 0 0 Z " fill="#A5A5A5" transform="translate(71,169)"/>
<path d="M0 0 C4.17799643 2.08899822 4.92391901 3.05544612 7 7 C7.33 4.69 7.66 2.38 8 0 C8.66 0 9.32 0 10 0 C10 3.63 10 7.26 10 11 C9.01 11 8.02 11 7 11 C4.8125 8 4.8125 8 3 5 C2.67 6.98 2.34 8.96 2 11 C1.34 11 0.68 11 0 11 C0 7.37 0 3.74 0 0 Z " fill="#CBCBCB" transform="translate(280,169)"/>
<path d="M0 0 C0.99 0 1.98 0 3 0 C3.67119549 1.4562545 4.33681807 2.91507867 5 4.375 C5.556875 5.59316406 5.556875 5.59316406 6.125 6.8359375 C7 9 7 9 7 11 C6.01 10.67 5.02 10.34 4 10 C4 9.34 4 8.68 4 8 C2.35 8 0.7 8 -1 8 C-1.33 8.99 -1.66 9.98 -2 11 C-2.66 11 -3.32 11 -4 11 C-3.52269162 9.5410574 -3.04308958 8.08286504 -2.5625 6.625 C-2.29566406 5.81289062 -2.02882812 5.00078125 -1.75390625 4.1640625 C-1 2 -1 2 0 0 Z " fill="#C9C9C9" transform="translate(201,169)"/>
<path d="M0 0 C3 1 3 1 4.6875 4.375 C6 8 6 8 6 11 C5.01 10.67 4.02 10.34 3 10 C3 9.34 3 8.68 3 8 C1.35 8 -0.3 8 -2 8 C-2 8.99 -2 9.98 -2 11 C-2.66 11 -3.32 11 -4 11 C-3.48964169 6.6109185 -2.47785723 3.66291938 0 0 Z " fill="#959595" transform="translate(261,169)"/>
<path d="M0 0 C3 1 3 1 4.6875 4.375 C6 8 6 8 6 11 C5.01 10.67 4.02 10.34 3 10 C3 9.34 3 8.68 3 8 C1.35 8 -0.3 8 -2 8 C-2 8.99 -2 9.98 -2 11 C-2.66 11 -3.32 11 -4 11 C-3.48964169 6.6109185 -2.47785723 3.66291938 0 0 Z " fill="#949494" transform="translate(96,169)"/>
<path d="M0 0 C2.31 0 4.62 0 7 0 C7.66 1.32 8.32 2.64 9 4 C7 6 7 6 4.375 6.125 C3.59125 6.08375 2.8075 6.0425 2 6 C2 7.65 2 9.3 2 11 C1.34 11 0.68 11 0 11 C0 7.37 0 3.74 0 0 Z " fill="#9D9D9D" transform="translate(236,169)"/>
<path d="M0 0 C0.66 0 1.32 0 2 0 C2.33 0.99 2.66 1.98 3 3 C3.99 2.01 4.98 1.02 6 0 C6.99 0.33 7.98 0.66 9 1 C7.68 2.65 6.36 4.3 5 6 C6.32 7.65 7.64 9.3 9 11 C6.5625 10.625 6.5625 10.625 4 10 C3.67 9.34 3.34 8.68 3 8 C2.67 8.99 2.34 9.98 2 11 C1.34 11 0.68 11 0 11 C0 7.37 0 3.74 0 0 Z " fill="#BFBFBF" transform="translate(177,169)"/>
<path d="M0 0 C0.66 0 1.32 0 2 0 C2 1.65 2 3.3 2 5 C3.98 5 5.96 5 8 5 C8 3.35 8 1.7 8 0 C8.66 0 9.32 0 10 0 C10 3.63 10 7.26 10 11 C9.34 11 8.68 11 8 11 C8 9.35 8 7.7 8 6 C6.02 6 4.04 6 2 6 C2 7.65 2 9.3 2 11 C1.34 11 0.68 11 0 11 C0 7.37 0 3.74 0 0 Z " fill="#C8C8C8" transform="translate(138,169)"/>
<path d="M0 0 C4.875 0.875 4.875 0.875 6 2 C6.25 4.4375 6.25 4.4375 6 7 C3 9 3 9 0 9 C0 6.03 0 3.06 0 0 Z " fill="#0F0F0F" transform="translate(305,170)"/>
<path d="M0 0 C1.98 0.66 3.96 1.32 6 2 C6.1875 4.375 6.1875 4.375 6 7 C3 9 3 9 0 9 C0 6.03 0 3.06 0 0 Z " fill="#050505" transform="translate(117,170)"/>
<path d="M0 0 C2.64 0 5.28 0 8 0 C8 0.33 8 0.66 8 1 C6.02 1 4.04 1 2 1 C2 2.32 2 3.64 2 5 C3.98 5 5.96 5 8 5 C8 5.33 8 5.66 8 6 C6.02 6 4.04 6 2 6 C2 7.32 2 8.64 2 10 C3.98 10 5.96 10 8 10 C8 10.33 8 10.66 8 11 C5.36 11 2.72 11 0 11 C0 7.37 0 3.74 0 0 Z " fill="#D1D1D1" transform="translate(326,169)"/>
<path d="M0 0 C0.99 0 1.98 0 3 0 C3 3.63 3 7.26 3 11 C2.01 11 1.02 11 0 11 C0 7.37 0 3.74 0 0 Z " fill="#989898" transform="translate(161,169)"/>
<path d="M0 0 C1.9375 0.6875 1.9375 0.6875 4 2 C5 4.375 5 4.375 5 7 C3.0625 9.3125 3.0625 9.3125 1 11 C0.34 10.34 -0.32 9.68 -1 9 C-0.34 8.67 0.32 8.34 1 8 C1.16687448 5.58354218 1.16687448 5.58354218 1 3 C0.34 2.34 -0.32 1.68 -1 1 C-0.67 0.67 -0.34 0.34 0 0 Z " fill="#ACACAC" transform="translate(309,169)"/>
<path d="M0 0 C0.66 0 1.32 0 2 0 C2 0.66 2 1.32 2 2 C3.98 1.67 5.96 1.34 8 1 C8.33 2.65 8.66 4.3 9 6 C8.01 5.67 7.02 5.34 6 5 C6 4.34 6 3.68 6 3 C4.35 3 2.7 3 1 3 C1 3.99 1 4.98 1 6 C0.34 6 -0.32 6 -1 6 C-0.67 4.02 -0.34 2.04 0 0 Z " fill="#C5C5C5" transform="translate(258,174)"/>
<path d="M0 0 C0.66 0 1.32 0 2 0 C2 0.66 2 1.32 2 2 C3.98 1.67 5.96 1.34 8 1 C8.33 2.65 8.66 4.3 9 6 C8.01 5.67 7.02 5.34 6 5 C6 4.34 6 3.68 6 3 C4.35 3 2.7 3 1 3 C1 3.99 1 4.98 1 6 C0.34 6 -0.32 6 -1 6 C-0.67 4.02 -0.34 2.04 0 0 Z " fill="#C5C5C5" transform="translate(93,174)"/>
<path d="M0 0 C0.66 0 1.32 0 2 0 C2 3.63 2 7.26 2 11 C1.01 11 0.02 11 -1 11 C-1.33 9.68 -1.66 8.36 -2 7 C-1.67 7 -1.34 7 -1 7 C-0.67 4.69 -0.34 2.38 0 0 Z " fill="#BCBCBC" transform="translate(288,169)"/>
<path d="M0 0 C2.125 0.9375 2.125 0.9375 4 2 C4.36923077 7.53846154 4.36923077 7.53846154 2.5 9.875 C1.7575 10.431875 1.7575 10.431875 1 11 C0.34 10.34 -0.32 9.68 -1 9 C-0.34 8.67 0.32 8.34 1 8 C1.25030977 5.58380177 1.25030977 5.58380177 1 3 C0.01 2.34 -0.98 1.68 -2 1 C-1.34 0.67 -0.68 0.34 0 0 Z " fill="#BEBEBE" transform="translate(121,169)"/>
<path d="M0 0 C0.66 0 1.32 0 2 0 C2.33 1.65 2.66 3.3 3 5 C1.35 5 -0.3 5 -2 5 C-1.34 3.35 -0.68 1.7 0 0 Z " fill="#747474" transform="translate(203,171)"/>
<path d="M0 0 C0.99 0 1.98 0 3 0 C1.92598892 2.91517292 1.22189824 4.77810176 -1 7 C-2 4 -2 4 -1.0625 1.8125 C-0.5365625 0.9153125 -0.5365625 0.9153125 0 0 Z " fill="#BCBCBC" transform="translate(201,169)"/>
</svg>
